<?xml version="1.0" encoding="utf-8"?>
<!-- Generator: Adobe Illustrator 24.3.0, SVG Export Plug-In . SVG Version: 6.00 Build 0)  -->
<svg version="1.1" id="Layer_1" xmlns="http://www.w3.org/2000/svg" xmlns:xlink="http://www.w3.org/1999/xlink" x="0px" y="0px"
	 viewBox="0 0 800 800" style="enable-background:new 0 0 800 800;" xml:space="preserve">
<style type="text/css">
	.st0{fill:#203500;}
</style>
<g>
	<path class="st0" d="M479.3,25.1h17.3l8.2,40.9c-7,0.1-15.8,0.8-25.5,2.8L479.3,25.1L479.3,25.1z"/>
	<path class="st0" d="M303.4,25.1h17.3v43.7c-9.7-2-18.4-2.7-25.5-2.8L303.4,25.1z"/>
	<path class="st0" d="M295.3,91c19.8,0.4,57.3,6.7,83.7,44.2c4.8,6.8,12.6,10.8,21,10.8s16.3-4,21-10.8
		c26.5-37.7,63.9-43.9,83.7-44.2l-34.5,149.5H329.8L295.3,91z"/>
	<rect x="332.4" y="265.6" class="st0" width="135.3" height="28.4"/>
	<path class="st0" d="M186.8,774.9c6.9-59,40.1-296.3,139.9-456h18.6l-24.5,159.3c-1.1,6.8,3.6,13.2,10.5,14.3
		c0.6,0.1,1.3,0.1,1.9,0.1c6.1,0,11.4-4.4,12.4-10.6L370.7,319h16.8v254.7c0,6.9,5.6,12.5,12.5,12.5c6.9,0,12.5-5.6,12.5-12.5V319
		h16.8l25.1,163.1c1,6.2,6.3,10.6,12.4,10.6c0.6,0,1.3,0,1.9-0.1c6.8-1.1,11.5-7.4,10.5-14.3L454.7,319h18.6
		c99.8,159.6,133,396.9,139.9,456H186.8L186.8,774.9z"/>
</g>
</svg>
