<?xml version="1.0" encoding="utf-8"?>
<!-- Generator: Adobe Illustrator 24.3.0, SVG Export Plug-In . SVG Version: 6.00 Build 0)  -->
<svg version="1.1" id="Capa_1" xmlns="http://www.w3.org/2000/svg" xmlns:xlink="http://www.w3.org/1999/xlink" x="0px" y="0px"
	 viewBox="0 0 596.7 817.1" style="enable-background:new 0 0 596.7 817.1;" xml:space="preserve">
<style type="text/css">
	.st0{fill:#203500;}
</style>
<g>
	<path class="st0" d="M387.4,4.5h19.5l9.2,60.1c-7.9,0.2-17.8,1.2-28.7,4.1L387.4,4.5L387.4,4.5z"/>
	<path class="st0" d="M189.2,4.5h19.5v64.2c-10.9-2.9-20.8-3.9-28.7-4.1L189.2,4.5z"/>
	<path class="st0" d="M180.1,63.4c22.3,0.5,64.6,7.6,94.3,49.7c5.4,7.6,14.2,12.2,23.7,12.2s18.3-4.6,23.7-12.2
		c29.9-42.5,72-49.4,94.3-49.8l-38.9,168.5H218.9L180.1,63.4z"/>
	<rect x="217.5" y="235.3" class="st0" width="161.1" height="32"/>
	<path class="st0" d="M538.5,789.8c0,12.6-107.4,22.8-239.9,22.8S58.7,802.4,58.7,789.8c0-1-0.9-6.6-0.4-9.8
		c8.9-73.3,47-333.1,157.1-509.3h165.1C491.1,447.6,529.1,709.2,537.8,781C538.5,784.1,538.5,788.5,538.5,789.8z"/>
</g>
</svg>
