<?xml version="1.0" encoding="utf-8"?>
<!-- Generator: Adobe Illustrator 24.3.0, SVG Export Plug-In . SVG Version: 6.00 Build 0)  -->
<svg version="1.1" id="Capa_1" xmlns="http://www.w3.org/2000/svg" xmlns:xlink="http://www.w3.org/1999/xlink" x="0px" y="0px"
	 viewBox="0 0 596.7 817.1" style="enable-background:new 0 0 596.7 817.1;" xml:space="preserve">
<style type="text/css">
	.st0{fill:none;stroke:#203500;stroke-width:12;stroke-miterlimit:10;}
	.st1{fill:#203500;}
</style>
<g>
	<g>
		<path class="st0" d="M525.9,730.9h62.8l-15.7-267l-31.4-353.3L392.5,35.5L369.9,37l-71.6,403.4L228.6,35.7l-24.5-0.1L55,110.7
			L23.5,463.9l-15.7,267h62.8l57.3-346.5l21.1,79.5L86.3,728.1l180.5,78.4l31.4-154.5l31.4,154.5L510.2,728l-62.9-264.2l21.2-79.5
			L525.9,730.9z"/>
	</g>
</g>
<polygon class="st1" points="470.7,241.1 400,250 446.7,198 470.7,214.7 "/>
<polygon class="st1" points="298.3,323.7 336.2,111.1 305.7,69 320.7,39.1 275.9,39.1 290.8,69 260.3,111.1 "/>
<circle class="st1" cx="297.8" cy="538.9" r="12.3"/>
</svg>
