<?xml version="1.0" encoding="utf-8"?>
<!-- Generator: Adobe Illustrator 24.3.0, SVG Export Plug-In . SVG Version: 6.00 Build 0)  -->
<svg version="1.1" id="Layer_1" xmlns="http://www.w3.org/2000/svg" xmlns:xlink="http://www.w3.org/1999/xlink" x="0px" y="0px"
	 viewBox="0 0 800 800" style="enable-background:new 0 0 800 800;" xml:space="preserve">
<style type="text/css">
	.st0{fill:#ffffff;}
</style>
<path class="st0" d="M735.5,265.6V154.8h-124L475.9,29.7C455.2,10.5,428.2,0,400,0c-28.2,0-55.2,10.5-75.9,29.7L188.5,154.8h-72.4
	v51.6H64.5v59.2L0,330.1v405.3C0,771.1,28.9,800,64.5,800h671c35.6,0,64.5-28.9,64.5-64.5V330.1L735.5,265.6z M735.5,302.1
	l29.1,29.1l-29.1,12.6V302.1z M341.6,48.6c15.9-14.7,36.7-22.8,58.4-22.8s42.5,8.1,58.4,22.8l115.1,106.2H226.6L341.6,48.6z
	 M141.9,180.6h567.7v174.3l-25.8,11.2V206.5H141.9V180.6z M459.6,232.3h198.5v145l-153,66.2c15.3-24.2,23.9-52.4,23.9-82.2
	C529,307.5,501.4,260,459.6,232.3z M503.2,361.3c0,44.8-22.8,85.7-61.1,109.5L400,489l-134.2-58.1c-13.4-20.8-20.6-44.7-20.6-69.6
	c0-71.1,57.9-129,129-129S503.2,290.1,503.2,361.3z M90.3,232.3h198.5c-41.8,27.8-69.4,75.2-69.4,129c0,18.5,3.3,36.6,9.7,53.7
	l-138.7-60V232.3z M64.5,302.1v41.7l-29.1-12.6L64.5,302.1z M735.5,774.2h-671c-8.5,0-16.2-2.8-22.6-7.4l232.6-137.9l0.2-0.1
	L399.9,555l124.3,73.1l234,138.6C751.7,771.4,743.9,774.2,735.5,774.2z M774.2,735.5c0,3.5-0.6,6.7-1.5,9.9L530.3,601.8l-130.4-73.1
	l-131.3,73.8l-241.3,143c-0.9-3.2-1.5-6.5-1.5-9.9V355.1l374.2,162l374.2-162V735.5z"/>
</svg>
